<svg width="16" height="16" viewBox="0 0 16 16" fill="none" xmlns="http://www.w3.org/2000/svg">
<path fill-rule="evenodd" clip-rule="evenodd" d="M3.43467 3.43429C3.58469 3.28432 3.78814 3.20006 4.00027 3.20006C4.2124 3.20006 4.41585 3.28432 4.56587 3.43429L8.00027 6.86869L11.4347 3.43429C11.5085 3.35789 11.5967 3.29694 11.6943 3.25501C11.7919 3.21309 11.8969 3.19102 12.0031 3.19009C12.1094 3.18917 12.2147 3.20941 12.313 3.24964C12.4113 3.28986 12.5007 3.34926 12.5758 3.42438C12.6509 3.49949 12.7103 3.58881 12.7505 3.68713C12.7908 3.78545 12.811 3.89079 12.8101 3.99702C12.8091 4.10324 12.7871 4.20821 12.7452 4.30582C12.7032 4.40342 12.6423 4.4917 12.5659 4.56549L9.13147 7.99989L12.5659 11.4343C12.7116 11.5852 12.7922 11.7873 12.7904 11.997C12.7886 12.2068 12.7044 12.4074 12.5561 12.5557C12.4078 12.7041 12.2071 12.7882 11.9974 12.79C11.7876 12.7919 11.5856 12.7112 11.4347 12.5655L8.00027 9.13109L4.56587 12.5655C4.41499 12.7112 4.2129 12.7919 4.00315 12.79C3.79339 12.7882 3.59274 12.7041 3.44441 12.5557C3.29609 12.4074 3.21195 12.2068 3.21013 11.997C3.20831 11.7873 3.28894 11.5852 3.43467 11.4343L6.86907 7.99989L3.43467 4.56549C3.28469 4.41547 3.20044 4.21203 3.20044 3.99989C3.20044 3.78776 3.28469 3.58432 3.43467 3.43429Z" fill="#FF4C4D"/>
</svg>
